<svg id="Layer_1" data-name="Layer 1" xmlns="http://www.w3.org/2000/svg" xmlns:xlink="http://www.w3.org/1999/xlink" viewBox="0 0 933.77 1192.47"><defs><style>.cls-1{fill:#262c83;}.cls-2{fill:url(#linear-gradient);}.cls-3{fill:url(#radial-gradient);}.cls-4{fill:#fe9539;}.cls-5{fill:#0a8e90;}.cls-6{fill:#0c8598;}.cls-7{fill:url(#linear-gradient-2);}.cls-8{fill:url(#linear-gradient-3);}.cls-9{fill:url(#linear-gradient-4);}.cls-10{fill:url(#linear-gradient-5);}.cls-11{fill:url(#linear-gradient-6);}.cls-12{fill:url(#linear-gradient-7);}.cls-13{fill:#f26f38;}.cls-14{fill:#f97834;}.cls-15{fill:#e45f40;}.cls-16{fill:#f97836;}.cls-17{fill:#f96436;}.cls-18{fill:#c65f40;}.cls-19{fill:#006837;}.cls-20{fill:#00430e;}.cls-21{fill:url(#radial-gradient-2);}.cls-22{fill:#2e9fff;}.cls-23{fill:url(#linear-gradient-8);}.cls-24{fill:#2651a0;}.cls-25{fill:#1b2876;}.cls-26{fill:#5ac7ff;}.cls-27{fill:#45b3fe;}.cls-28{fill:#44b4fe;}</style><linearGradient id="linear-gradient" x1="489.54" y1="1094.82" x2="486.23" y2="101.7" gradientUnits="userSpaceOnUse"><stop offset="0.23" stop-color="#72ceff"/><stop offset="0.35" stop-color="#6fccff"/><stop offset="0.44" stop-color="#66c7ff"/><stop offset="0.51" stop-color="#56bdff"/><stop offset="0.58" stop-color="#3fafff"/><stop offset="0.63" stop-color="#2ea5ff"/><stop offset="1" stop-color="#2e9fff"/></linearGradient><radialGradient id="radial-gradient" cx="121.88" cy="121.88" fx="63.6684827108216" fy="-89.60370544751206" r="219.34" gradientUnits="userSpaceOnUse"><stop offset="0.35" stop-color="#f97836"/><stop offset="0.56" stop-color="#f77636"/><stop offset="0.64" stop-color="#f16f37"/><stop offset="0.69" stop-color="#e76439"/><stop offset="0.7" stop-color="#e4603a"/><stop offset="0.88" stop-color="#dc5d3d"/><stop offset="1" stop-color="#d35941"/></radialGradient><linearGradient id="linear-gradient-2" x1="656.09" y1="940.42" x2="655.79" y2="851.41" gradientUnits="userSpaceOnUse"><stop offset="0.41" stop-color="#f97836"/><stop offset="0.74" stop-color="#e4603a"/><stop offset="0.9" stop-color="#dc5d3d"/><stop offset="1" stop-color="#d35941"/></linearGradient><linearGradient id="linear-gradient-3" x1="116.03" y1="1019.61" x2="115.73" y2="930.6" xlink:href="#linear-gradient-2"/><linearGradient id="linear-gradient-4" x1="351.11" y1="1019.89" x2="350.81" y2="930.88" xlink:href="#linear-gradient-2"/><linearGradient id="linear-gradient-5" x1="427.9" y1="797.59" x2="426.87" y2="946.1" xlink:href="#linear-gradient-2"/><linearGradient id="linear-gradient-6" x1="177.02" y1="1020.54" x2="175.98" y2="1169.31" xlink:href="#linear-gradient-2"/><linearGradient id="linear-gradient-7" x1="228.29" y1="906.24" x2="228.11" y2="850.01" xlink:href="#linear-gradient-2"/><radialGradient id="radial-gradient-2" cx="798.1" cy="134.89" r="46.93" gradientUnits="userSpaceOnUse"><stop offset="0" stop-color="#00430e"/><stop offset="1" stop-color="#006837"/></radialGradient><linearGradient id="linear-gradient-8" x1="396.02" y1="1039.94" x2="877.45" y2="1039.94" gradientUnits="userSpaceOnUse"><stop offset="0.23" stop-color="#2e8fff"/><stop offset="0.67" stop-color="#3bcbff"/><stop offset="0.77" stop-color="#39c3ff"/><stop offset="0.92" stop-color="#32acff"/><stop offset="1" stop-color="#2e9fff"/></linearGradient></defs><rect class="cls-1" x="42.1" y="36.22" width="891.67" height="1156.25" rx="49.48"/><rect class="cls-2" x="70.9" y="65.22" width="834.08" height="1098.24" rx="49.48"/><circle class="cls-1" cx="121.88" cy="121.88" r="121.87"/><circle class="cls-3" cx="121.88" cy="121.88" r="94.64"/><ellipse class="cls-4" cx="507.43" cy="745.64" rx="265.79" ry="228.64"/><ellipse class="cls-5" cx="365.41" cy="976.82" rx="285.01" ry="151.31"/><ellipse class="cls-6" cx="732.24" cy="954.97" rx="174.46" ry="151.31"/><rect class="cls-5" x="70.9" y="895.87" width="838.15" height="273.34" rx="46"/><rect class="cls-7" x="611.14" y="848.18" width="89.62" height="98.35"/><rect class="cls-8" x="71.08" y="927.37" width="89.62" height="98.35"/><rect class="cls-9" x="306.16" y="927.65" width="89.62" height="98.35"/><rect class="cls-10" x="397.03" y="800.11" width="60.73" height="139.81"/><rect class="cls-11" x="128.34" y="1023.18" width="96.33" height="139.81"/><rect class="cls-12" x="179.03" y="848.04" width="98.35" height="62"/><rect class="cls-13" x="129.38" y="820.31" width="58.66" height="67.59"/><rect class="cls-14" x="129.56" y="863.17" width="116.96" height="67.59"/><polygon class="cls-13" points="187.85 863.17 70.9 863.17 129.38 820.31 187.85 863.17"/><polygon class="cls-14" points="246.51 863.17 129.56 863.17 188.04 820.31 246.51 863.17"/><rect class="cls-13" x="71.08" y="863.17" width="58.48" height="67.59"/><rect class="cls-15" x="215.97" y="876.76" width="17.42" height="22.29"/><rect class="cls-15" x="192.91" y="876.76" width="17.42" height="22.29"/><rect class="cls-15" x="158.71" y="876.76" width="17.42" height="42.1"/><rect class="cls-13" x="226.52" y="908.95" width="58.66" height="67.59"/><rect class="cls-14" x="226.7" y="951.82" width="116.96" height="67.59"/><polygon class="cls-13" points="285 951.82 168.04 951.82 226.52 908.95 285 951.82"/><polygon class="cls-14" points="343.66 951.82 226.7 951.82 285.18 908.95 343.66 951.82"/><rect class="cls-13" x="168.22" y="951.82" width="58.48" height="67.59"/><rect class="cls-15" x="313.11" y="965.4" width="17.42" height="22.29"/><rect class="cls-15" x="290.05" y="965.4" width="17.42" height="22.29"/><rect class="cls-15" x="255.85" y="965.4" width="17.42" height="42.1"/><rect class="cls-13" x="516.06" y="823.51" width="58.66" height="67.59"/><rect class="cls-14" x="516.24" y="866.37" width="116.96" height="67.59"/><polygon class="cls-13" points="574.54 866.38 457.58 866.38 516.06 823.51 574.54 866.38"/><polygon class="cls-14" points="633.2 866.38 516.24 866.38 574.72 823.51 633.2 866.38"/><rect class="cls-13" x="457.76" y="866.37" width="58.48" height="67.59"/><rect class="cls-15" x="602.65" y="879.96" width="17.42" height="22.29"/><rect class="cls-15" x="579.59" y="879.96" width="17.42" height="22.29"/><rect class="cls-15" x="545.39" y="879.96" width="17.42" height="42.1"/><rect class="cls-16" x="834.93" y="828.64" width="72" height="107.96"/><rect class="cls-16" x="690.92" y="858.12" width="72" height="78.48"/><rect class="cls-17" x="762.92" y="779.64" width="72" height="156.96"/><rect class="cls-15" x="773.66" y="797.55" width="19.74" height="25.64"/><rect class="cls-15" x="801.89" y="797.55" width="19.74" height="25.64"/><rect class="cls-18" x="801.89" y="832.48" width="19.74" height="25.64"/><rect class="cls-15" x="840.96" y="835.8" width="19.74" height="25.64"/><rect class="cls-15" x="875.33" y="837.67" width="19.74" height="25.64"/><rect class="cls-15" x="874.31" y="884.54" width="19.74" height="25.64"/><rect class="cls-15" x="707.18" y="871.72" width="19.74" height="25.64"/><rect class="cls-15" x="735.05" y="871.72" width="19.74" height="25.64"/><rect class="cls-16" x="255.85" y="848.44" width="72" height="78.48"/><rect class="cls-17" x="327.85" y="769.96" width="72" height="156.96"/><rect class="cls-15" x="338.59" y="787.87" width="19.74" height="25.64"/><rect class="cls-15" x="366.82" y="787.87" width="19.74" height="25.64"/><rect class="cls-18" x="366.82" y="822.8" width="19.74" height="25.64"/><rect class="cls-15" x="272.11" y="862.04" width="19.74" height="25.64"/><rect class="cls-15" x="299.98" y="862.04" width="19.74" height="25.64"/><rect class="cls-16" x="217.11" y="1067.5" width="87.26" height="89.35"/><rect class="cls-17" x="304.37" y="978.15" width="87.26" height="178.7"/><rect class="cls-15" x="317.39" y="998.53" width="23.92" height="29.19"/><rect class="cls-15" x="351.6" y="998.53" width="23.92" height="29.19"/><rect class="cls-18" x="351.6" y="1038.3" width="23.92" height="29.19"/><rect class="cls-15" x="236.82" y="1082.98" width="23.92" height="29.19"/><rect class="cls-15" x="270.59" y="1082.98" width="23.92" height="29.19"/><circle class="cls-1" cx="201.62" cy="1016.5" r="109.46"/><circle class="cls-15" cx="675.07" cy="134.89" r="31.51"/><path class="cls-19" d="M336.76,685.48s-81.19-79.66-33.7-176.93c34.23-60.23,124.85-116.43,347-154.73,9.2,29.11,20.64,61.88,29.88,103.41,9.77,43.94,8.85,79.18,5.42,112.11-5.7,54.86-23.27,150.9-151.72,175.12C533.61,744.46,409.52,768.21,336.76,685.48Z"/><path class="cls-20" d="M374.34,874.86S282.9,573.43,618.87,578.06c0,0-108.65-43.59-202.32,45.78,20.2-99.23,150.58-169.41,227-139.07-39.22-28.16-104-8.14-111.53-4.37,23.53-27.3,59.28-66.31,86.1-67.64-21.89-3-66,27.48-82.9,56.76,5.14-15,7.28-27.35,7.33-53.93-9.14,49-22.62,71.75-46.62,88.7-14.4,10.17-22.75,21.3-30.23,22.23,0,0-3.46-28.77-31-34.94,16.44,10.82,28,23.71,10.06,55.54-23.55,22.29-40.65,50.65-39.4,79.32-7-23.77-19.2-47.37-55.05-56.12,21.12,6.6,53.14,57.48,37,77.83,0,0-51.8,60-46.48,114S352.67,823.51,374.34,874.86Z"/><rect class="cls-21" x="738.74" y="105.21" width="118.72" height="59.36" rx="29.68"/><path class="cls-22" d="M201.62,913.22a103.29,103.29,0,0,0-56.28,189.9c.17-54.2,14.36-71.54,32.61-77-9.31-9-15.31-23.1-15.31-39,0-27.12,17.45-49.11,39-49.11s39,22,39,49.11c0,15.65-5.83,29.59-14.89,38.58,17.12,5,29.78,21.65,31.88,77.66a103.29,103.29,0,0,0-56-190.1Z"/><rect class="cls-1" x="376.69" y="927.86" width="520.09" height="224.16" rx="29.03"/><rect class="cls-23" x="396.02" y="939.37" width="481.43" height="201.13" rx="29.03"/><path class="cls-24" d="M721.34,1094.27s-18.35,4.22-18.35-2.75c0-4,13-10.71,17.29-10.56-12,1.32-21.55,5.12-21.28,11.85C704.58,1098.36,714.16,1097.48,721.34,1094.27Z"/><path class="cls-24" d="M672,1084.19s26.34-10.53,56.93-3.22C703.1,1082.28,683,1084.37,672,1084.19Z"/><path class="cls-25" d="M724.68,1093s-18.35,4.23-18.35-2.74c0-4,13-10.71,17.29-10.56-12,1.32-21.55,5.12-21.28,11.84C707.92,1097.07,717.5,1096.2,724.68,1093Z"/><path class="cls-25" d="M675.31,1082.9s26.34-10.52,56.93-3.21C706.44,1081,686.29,1083.09,675.31,1082.9Z"/><path class="cls-24" d="M790.65,990.4s33.16.78,43-3.28c-6.67,7.22-25.15,3.39-21.47,33.63-5.68-12.56,3-26.2,3-26.2a114.92,114.92,0,0,1-15.8-.87C791.76,992.64,790.65,990.4,790.65,990.4Z"/><path class="cls-25" d="M793.32,988.14s33,3.15,43.09-.21c-7.22,6.73-25.34,1.59-24,32-4.68-12.94,5-25.91,5-25.91a116.43,116.43,0,0,1-15.69-2C794.25,990.45,793.32,988.14,793.32,988.14Z"/><path class="cls-25" d="M721.74,1003.94s-1.85-14.56,6.9-13.9c13.38,1,31.17-5.26,28.91,11.93,5.61-9.55.43-15.37-11.65-15.3S713.25,982.6,721.74,1003.94Z"/><path class="cls-25" d="M516.88,963.26s279.57-5.27,335.87,0C732.11,969.16,546,968.52,516.88,963.26Z"/><path class="cls-25" d="M516.88,1038.12s279.57-5.27,335.87,0C732.11,1044,546,1043.38,516.88,1038.12Z"/><path class="cls-24" d="M602.85,1010.53s-25.26-15.24,0-27.94C586.17,983,576.64,1003.34,602.85,1010.53Z"/><path class="cls-25" d="M600,1010.53s-25.26-15.24,0-27.94C583.29,983,573.76,1003.34,600,1010.53Z"/><path class="cls-24" d="M839.19,1071.86s25.38,15.05.21,27.94C856.08,1099.25,865.46,1078.86,839.19,1071.86Z"/><path class="cls-25" d="M842.07,1071.84s25.38,15,.21,27.94C859,1099.23,868.34,1078.83,842.07,1071.84Z"/><path class="cls-24" d="M492.77,997.93s19.91-6.12,37.14,0C514.3,1005.08,492.77,997.93,492.77,997.93Z"/><path class="cls-25" d="M495.07,995s19.91-6.12,37.13,0C516.59,1002.13,495.07,995,495.07,995Z"/><path class="cls-24" d="M552.16,1105.55s-1.93-20.74,7.58-36.35C563.56,1085.94,552.16,1105.55,552.16,1105.55Z"/><path class="cls-25" d="M549.74,1102.71s-1.93-20.75,7.58-36.35C561.14,1083.09,549.74,1102.71,549.74,1102.71Z"/><path class="cls-24" d="M642.78,993.39s18.89-6.13,35.23,0C663.2,1000.54,642.78,993.39,642.78,993.39Z"/><path class="cls-25" d="M645,990.44s18.9-6.13,35.24,0C665.38,997.58,645,990.44,645,990.44Z"/><path class="cls-24" d="M690.39,984.76s-5.45,19.1-19.65,29.25C673.06,997.73,690.39,984.76,690.39,984.76Z"/><path class="cls-25" d="M691.62,988.21s-5.45,19.1-19.65,29.25C674.3,1001.18,691.62,988.21,691.62,988.21Z"/><path class="cls-24" d="M756.46,1082.78s18.89-6.13,35.23,0C776.88,1089.93,756.46,1082.78,756.46,1082.78Z"/><path class="cls-25" d="M758.63,1079.83s18.9-6.13,35.24,0C779.06,1087,758.63,1079.83,758.63,1079.83Z"/><path class="cls-24" d="M804.06,1074.15s-5.45,19.1-19.64,29.25C786.74,1087.12,804.06,1074.15,804.06,1074.15Z"/><path class="cls-25" d="M805.3,1077.6s-5.45,19.1-19.65,29.25C788,1090.57,805.3,1077.6,805.3,1077.6Z"/><path class="cls-25" d="M415,964.18s20.3-.61,28-12.63c10.72,12,27.19,12,27.19,12s-18,3.27-27.58,13.25C436.07,966.84,415,964.18,415,964.18Z"/><path class="cls-24" d="M613,1072.47s0,19,28.15,19C624.69,1097,609.37,1087,613,1072.47Z"/><path class="cls-24" d="M626.81,1077s-18.3,4.92-11,32.1C606.22,1094.68,611.81,1077.3,626.81,1077Z"/><path class="cls-25" d="M610.52,1070.3s0,19,28.15,19C622.2,1094.78,606.88,1084.86,610.52,1070.3Z"/><path class="cls-25" d="M624.32,1074.87s-18.3,4.92-11,32.11C603.73,1092.51,609.32,1075.14,624.32,1074.87Z"/><path class="cls-24" d="M519.8,1070.49s-10.08-11.2-19-1.1,6.55,16.41,9.37,19.69c1.43,1.66,4.11,12.63-1.14,13.82,1.73-5.28-.21-15.33-8.49-16.9-6.63-3.09-9.48-19.65,4.86-22.59C515.33,1061.37,519.8,1070.49,519.8,1070.49Z"/><path class="cls-25" d="M516.88,1070.3s-10.08-11.2-19-1.1,7,16,9.37,19.69c1.22,1.92,4.11,12.63-1.14,13.82,1.73-5.28-.21-15.33-8.49-16.9-6.63-3.08-9.48-19.65,4.85-22.59C512.41,1061.18,516.88,1070.3,516.88,1070.3Z"/><path class="cls-26" d="M95.41,412.55H307.83s-6.13-36.76-48-28.59c-8.68-44.94-96.51-59.24-112.34-1.19C147.49,382.77,98,372.21,95.41,412.55Z"/><path class="cls-26" d="M413.59,277.76H626s-6.12-36.76-48-28.59c-8.68-44.94-96.51-59.24-112.34-1.19C465.67,248,416.14,237.42,413.59,277.76Z"/><path class="cls-26" d="M707.06,314.78H850.74s2.64-69.59-46.46-71-48.39,45.34-48.39,45.34S716.29,274.51,707.06,314.78Z"/><path class="cls-27" d="M845.07,520H701.39s-2.63-69.58,46.47-71,48.38,45.34,48.38,45.34S835.84,479.78,845.07,520Z"/><path class="cls-28" d="M240.4,233.31h78.13s2.29-25-24-16.85c.76-15.83-36-28.09-42.39.25C235.8,210.84,232.23,230.5,240.4,233.31Z"/><path class="cls-28" d="M148.13,614.34h78.13s2.29-25-24-16.85c.76-15.83-36-28.09-42.39.26C143.53,591.87,140,611.53,148.13,614.34Z"/></svg>